<svg width="256" height="256" viewBox="0 0 256 256" fill="none" xmlns="http://www.w3.org/2000/svg">
<path fill-rule="evenodd" clip-rule="evenodd" d="M132.426 185.24C121.594 179.344 111.995 177.013 103.768 177.013C95.267 177.013 88.1369 179.482 82.3779 182.498L80.0469 180.03V155.897L86.9028 149.041L89.3709 107.357L80.8696 99.2673V62.1082C87.0399 58.6802 93.7587 55.8007 100.889 53.8811V71.7065C104.865 70.7466 109.116 69.9239 113.367 69.3755V51.2758C117.754 50.7274 122.416 50.4531 127.078 50.4531C132.015 50.4531 136.814 50.7274 141.476 51.413V70.4724C145.864 71.0209 150.114 71.7065 154.091 72.6663C160.672 74.3117 166.98 76.5056 172.739 79.1109V101.05L163.963 109.14C157.245 106.535 149.292 105.026 140.653 105.026C137.911 105.026 135.443 105.3 132.975 105.575L136.677 92.5485L127.901 106.123V148.904L132.426 154.526V185.24ZM105.825 111.471C104.043 111.471 102.534 112.979 102.534 114.899L101.437 146.025H110.213L109.116 114.899C109.116 112.979 107.608 111.471 105.825 111.471ZM154.234 54.1615C161.639 55.944 167.123 58.4121 172.882 61.5658V75.8262C167.123 73.2209 160.816 70.8899 154.234 69.3816V54.1615ZM144.21 114.891C144.21 112.972 145.718 111.464 147.501 111.464C149.557 111.464 150.792 112.835 150.929 114.891L152.026 146.017H143.25L144.21 114.891ZM155.321 197.161C145.997 197.161 139.415 194.967 130.914 190.717C121.864 186.055 111.717 182.078 98.8281 182.078C86.7617 182.078 73.8725 186.329 64 201C75.7922 193.733 86.6245 191.402 95.8115 191.402C105.547 191.402 113.088 193.87 120.63 197.847C129.268 202.372 136.673 205.525 147.505 205.525C157.926 205.525 169.718 201.549 179.865 188.248C171.775 194.967 163.137 197.161 155.321 197.161Z" fill="white"/>
<path fill-rule="evenodd" clip-rule="evenodd" d="M132.426 185.24C121.594 179.344 111.995 177.013 103.768 177.013C95.267 177.013 88.1369 179.482 82.3779 182.498L80.0469 180.03V155.897L86.9028 149.041L89.3709 107.357L80.8696 99.2673V62.1082C87.0399 58.6802 93.7587 55.8007 100.889 53.8811V71.7065C104.865 70.7466 109.116 69.9239 113.367 69.3755V51.2758C117.754 50.7274 122.416 50.4531 127.078 50.4531C132.015 50.4531 136.814 50.7274 141.476 51.413V70.4724C145.864 71.0209 150.114 71.7065 154.091 72.6663C160.672 74.3117 166.98 76.5056 172.739 79.1109V101.05L163.963 109.14C157.245 106.535 149.292 105.026 140.653 105.026C137.911 105.026 135.443 105.3 132.975 105.575L136.677 92.5485L127.901 106.123V148.904L132.426 154.526V185.24ZM105.825 111.471C104.043 111.471 102.534 112.979 102.534 114.899L101.437 146.025H110.213L109.116 114.899C109.116 112.979 107.608 111.471 105.825 111.471ZM154.234 54.1615C161.639 55.944 167.123 58.4121 172.882 61.5658V75.8262C167.123 73.2209 160.816 70.8899 154.234 69.3816V54.1615ZM144.21 114.891C144.21 112.972 145.718 111.464 147.501 111.464C149.557 111.464 150.792 112.835 150.929 114.891L152.026 146.017H143.25L144.21 114.891ZM155.321 197.161C145.997 197.161 139.415 194.967 130.914 190.717C121.864 186.055 111.717 182.078 98.8281 182.078C86.7617 182.078 73.8725 186.329 64 201C75.7922 193.733 86.6245 191.402 95.8115 191.402C105.547 191.402 113.088 193.87 120.63 197.847C129.268 202.372 136.673 205.525 147.505 205.525C157.926 205.525 169.718 201.549 179.865 188.248C171.775 194.967 163.137 197.161 155.321 197.161Z" fill="url(#paint0_radial_1153_3067)"/>
<defs>
<radialGradient id="paint0_radial_1153_3067" cx="0" cy="0" r="1" gradientUnits="userSpaceOnUse" gradientTransform="translate(62.9832 36.4286) scale(146.588 196.191)">
<stop stop-color="#009BBD"/>
<stop offset="0.1735" stop-color="#009BBD"/>
<stop offset="1" stop-color="#1B296B"/>
</radialGradient>
</defs>
</svg>
